<svg xmlns="http://www.w3.org/2000/svg" xmlns:xlink="http://www.w3.org/1999/xlink" width="735.041" height="104.549" viewBox="0 0 735.041 104.549">
  <defs>
    <linearGradient id="linear-gradient" x1="0.5" x2="0.5" y2="1" gradientUnits="objectBoundingBox">
      <stop offset="0" stop-color="#5e6eff"/>
      <stop offset="1" stop-color="#ff2b74"/>
      <stop offset="1" stop-color="#7f0000"/>
    </linearGradient>
    <filter id="Intersection_7" x="0" y="0.601" width="87.111" height="103.001" filterUnits="userSpaceOnUse">
      <feOffset dy="3" input="SourceAlpha"/>
      <feGaussianBlur stdDeviation="3" result="blur"/>
      <feFlood flood-opacity="0.161"/>
      <feComposite operator="in" in2="blur"/>
    </filter>
    <filter id="Intersection_7-2" x="0" y="0.601" width="87.111" height="103.001" filterUnits="userSpaceOnUse">
      <feOffset dx="-3" dy="3" input="SourceAlpha"/>
      <feGaussianBlur stdDeviation="2" result="blur-2"/>
      <feFlood flood-opacity="0.4" result="color"/>
      <feComposite operator="out" in="SourceGraphic" in2="blur-2"/>
      <feComposite operator="in" in="color"/>
      <feComposite operator="in" in2="SourceGraphic"/>
    </filter>
    <linearGradient id="linear-gradient-3" x1="0.5" x2="0.5" y2="1" gradientUnits="objectBoundingBox">
      <stop offset="0" stop-color="#5db6b6"/>
      <stop offset="1" stop-color="#5e6eff"/>
    </linearGradient>
    <filter id="Intersection_8" x="22.141" y="0" width="288.364" height="104.548" filterUnits="userSpaceOnUse">
      <feOffset dy="3" input="SourceAlpha"/>
      <feGaussianBlur stdDeviation="3" result="blur-3"/>
      <feFlood flood-opacity="0.161"/>
      <feComposite operator="in" in2="blur-3"/>
    </filter>
    <filter id="Intersection_8-2" x="22.141" y="0" width="288.364" height="104.548" filterUnits="userSpaceOnUse">
      <feOffset dy="3" input="SourceAlpha"/>
      <feGaussianBlur stdDeviation="2" result="blur-4"/>
      <feFlood flood-opacity="0.4" result="color-2"/>
      <feComposite operator="out" in="SourceGraphic" in2="blur-4"/>
      <feComposite operator="in" in="color-2"/>
      <feComposite operator="in" in2="SourceGraphic"/>
    </filter>
    <linearGradient id="linear-gradient-5" x1="0.5" x2="0.5" y2="1" gradientUnits="objectBoundingBox">
      <stop offset="0" stop-color="#5db6b6"/>
      <stop offset="1" stop-color="#ae09ff"/>
    </linearGradient>
    <filter id="Intersection_9">
      <feOffset dx="-10" dy="3" input="SourceAlpha"/>
      <feGaussianBlur stdDeviation="10" result="blur-5"/>
      <feFlood flood-opacity="0.4" result="color-3"/>
      <feComposite operator="out" in="SourceGraphic" in2="blur-5"/>
      <feComposite operator="in" in="color-3"/>
      <feComposite operator="in" in2="SourceGraphic"/>
    </filter>
    <linearGradient id="linear-gradient-6" x1="0.5" x2="0.5" y2="1" gradientUnits="objectBoundingBox">
      <stop offset="0" stop-color="#ff2b74"/>
      <stop offset="1" stop-color="#ff48c2"/>
    </linearGradient>
    <filter id="Intersection_10">
      <feOffset dx="-10" dy="3" input="SourceAlpha"/>
      <feGaussianBlur stdDeviation="10" result="blur-6"/>
      <feFlood flood-opacity="0.4" result="color-4"/>
      <feComposite operator="out" in="SourceGraphic" in2="blur-6"/>
      <feComposite operator="in" in="color-4"/>
      <feComposite operator="in" in2="SourceGraphic"/>
    </filter>
    <filter id="Intersection_11" x="457.04" y="0.602" width="214.951" height="103.119" filterUnits="userSpaceOnUse">
      <feOffset dy="3" input="SourceAlpha"/>
      <feGaussianBlur stdDeviation="3" result="blur-7"/>
      <feFlood flood-opacity="0.161"/>
      <feComposite operator="in" in2="blur-7"/>
    </filter>
    <filter id="Intersection_11-2" x="457.04" y="0.602" width="214.951" height="103.119" filterUnits="userSpaceOnUse">
      <feOffset dx="3" dy="3" input="SourceAlpha"/>
      <feGaussianBlur stdDeviation="2.5" result="blur-8"/>
      <feFlood flood-opacity="0.588" result="color-5"/>
      <feComposite operator="out" in="SourceGraphic" in2="blur-8"/>
      <feComposite operator="in" in="color-5"/>
      <feComposite operator="in" in2="SourceGraphic"/>
    </filter>
    <filter id="Intersection_12" x="181.049" y="0.482" width="155.699" height="104.067" filterUnits="userSpaceOnUse">
      <feOffset dy="3" input="SourceAlpha"/>
      <feGaussianBlur stdDeviation="3" result="blur-9"/>
      <feFlood flood-opacity="0.161"/>
      <feComposite operator="in" in2="blur-9"/>
    </filter>
    <filter id="Intersection_12-2" x="181.049" y="0.482" width="155.699" height="104.067" filterUnits="userSpaceOnUse">
      <feOffset dy="3" input="SourceAlpha"/>
      <feGaussianBlur stdDeviation="2.5" result="blur-10"/>
      <feFlood flood-opacity="0.4" result="color-6"/>
      <feComposite operator="out" in="SourceGraphic" in2="blur-10"/>
      <feComposite operator="in" in="color-6"/>
      <feComposite operator="in" in2="SourceGraphic"/>
    </filter>
    <filter id="Intersection_13">
      <feOffset dy="3" input="SourceAlpha"/>
      <feGaussianBlur stdDeviation="2.5" result="blur-11"/>
      <feFlood flood-opacity="0.4" result="color-7"/>
      <feComposite operator="out" in="SourceGraphic" in2="blur-11"/>
      <feComposite operator="in" in="color-7"/>
      <feComposite operator="in" in2="SourceGraphic"/>
    </filter>
    <linearGradient id="linear-gradient-12" x1="0.5" x2="0.5" y2="1" gradientUnits="objectBoundingBox">
      <stop offset="0" stop-color="#fd0098"/>
      <stop offset="1" stop-color="#ffbb1d"/>
    </linearGradient>
    <filter id="Intersection_14" x="593.403" y="0.447" width="141.638" height="103.789" filterUnits="userSpaceOnUse">
      <feOffset dy="3" input="SourceAlpha"/>
      <feGaussianBlur stdDeviation="3" result="blur-12"/>
      <feFlood flood-opacity="0.161"/>
      <feComposite operator="in" in2="blur-12"/>
    </filter>
    <filter id="Intersection_14-2" x="593.403" y="0.447" width="141.638" height="103.789" filterUnits="userSpaceOnUse">
      <feOffset dx="3" dy="3" input="SourceAlpha"/>
      <feGaussianBlur stdDeviation="2.5" result="blur-13"/>
      <feFlood flood-opacity="0.612" result="color-8"/>
      <feComposite operator="out" in="SourceGraphic" in2="blur-13"/>
      <feComposite operator="in" in="color-8"/>
      <feComposite operator="in" in2="SourceGraphic"/>
    </filter>
  </defs>
  <g id="Group_37" data-name="Group 37" transform="translate(-132.479 -450.838)">
    <g data-type="innerShadowGroup">
      <g transform="matrix(1, 0, 0, 1, 132.48, 450.84)" filter="url(#Intersection_7)">
        <path id="Intersection_7-3" data-name="Intersection 7" d="M4128.712-1870.633a26.529,26.529,0,0,1-26.521-26.521h15a11.523,11.523,0,0,0,11.521,11.52h26.28a11.625,11.625,0,0,0,11.64-11.52,11.625,11.625,0,0,0-11.64-11.52h-30.24a22.438,22.438,0,0,1-15.72-6.359,21.059,21.059,0,0,1-2.88-3.6,22.3,22.3,0,0,1-3.96-12.839v-.48a22.636,22.636,0,0,1,22.56-22.68h34.081a22.584,22.584,0,0,1,4.84.523,146.642,146.642,0,0,1,5.106,22.739l-2.268.018v-.48a7.733,7.733,0,0,0-7.679-7.68h-34.081a7.733,7.733,0,0,0-7.68,7.68v.48a7.732,7.732,0,0,0,7.68,7.68h30.24a26.324,26.324,0,0,1,15.042,4.684q.269,4.487.27,8.98a95.254,95.254,0,0,1-8.026,38.363,26.513,26.513,0,0,1-7.285,1.014Z" transform="translate(-4092.69 1961.74)" stroke="rgba(0,0,0,0)" stroke-miterlimit="10" stroke-width="1" fill="url(#linear-gradient)"/>
      </g>
      <path id="Intersection_7-4" data-name="Intersection 7" d="M4128.712-1870.633a26.529,26.529,0,0,1-26.521-26.521h15a11.523,11.523,0,0,0,11.521,11.52h26.28a11.625,11.625,0,0,0,11.64-11.52,11.625,11.625,0,0,0-11.64-11.52h-30.24a22.438,22.438,0,0,1-15.72-6.359,21.059,21.059,0,0,1-2.88-3.6,22.3,22.3,0,0,1-3.96-12.839v-.48a22.636,22.636,0,0,1,22.56-22.68h34.081a22.584,22.584,0,0,1,4.84.523,146.642,146.642,0,0,1,5.106,22.739l-2.268.018v-.48a7.733,7.733,0,0,0-7.679-7.68h-34.081a7.733,7.733,0,0,0-7.68,7.68v.48a7.732,7.732,0,0,0,7.68,7.68h30.24a26.324,26.324,0,0,1,15.042,4.684q.269,4.487.27,8.98a95.254,95.254,0,0,1-8.026,38.363,26.513,26.513,0,0,1-7.285,1.014Z" transform="translate(-3960.212 2412.574)" fill="url(#linear-gradient)"/>
      <g transform="matrix(1, 0, 0, 1, 132.48, 450.84)" filter="url(#Intersection_7-2)">
        <path id="Intersection_7-5" data-name="Intersection 7" d="M4128.712-1870.633a26.529,26.529,0,0,1-26.521-26.521h15a11.523,11.523,0,0,0,11.521,11.52h26.28a11.625,11.625,0,0,0,11.64-11.52,11.625,11.625,0,0,0-11.64-11.52h-30.24a22.438,22.438,0,0,1-15.72-6.359,21.059,21.059,0,0,1-2.88-3.6,22.3,22.3,0,0,1-3.96-12.839v-.48a22.636,22.636,0,0,1,22.56-22.68h34.081a22.584,22.584,0,0,1,4.84.523,146.642,146.642,0,0,1,5.106,22.739l-2.268.018v-.48a7.733,7.733,0,0,0-7.679-7.68h-34.081a7.733,7.733,0,0,0-7.68,7.68v.48a7.732,7.732,0,0,0,7.68,7.68h30.24a26.324,26.324,0,0,1,15.042,4.684q.269,4.487.27,8.98a95.254,95.254,0,0,1-8.026,38.363,26.513,26.513,0,0,1-7.285,1.014Z" transform="translate(-4092.69 1961.74)" fill="#fff"/>
      </g>
      <path id="Intersection_7-6" data-name="Intersection 7" d="M4128.712-1870.633a26.529,26.529,0,0,1-26.521-26.521h15a11.523,11.523,0,0,0,11.521,11.52h26.28a11.625,11.625,0,0,0,11.64-11.52,11.625,11.625,0,0,0-11.64-11.52h-30.24a22.438,22.438,0,0,1-15.72-6.359,21.059,21.059,0,0,1-2.88-3.6,22.3,22.3,0,0,1-3.96-12.839v-.48a22.636,22.636,0,0,1,22.56-22.68h34.081a22.584,22.584,0,0,1,4.84.523,146.642,146.642,0,0,1,5.106,22.739l-2.268.018v-.48a7.733,7.733,0,0,0-7.679-7.68h-34.081a7.733,7.733,0,0,0-7.68,7.68v.48a7.732,7.732,0,0,0,7.68,7.68h30.24a26.324,26.324,0,0,1,15.042,4.684q.269,4.487.27,8.98a95.254,95.254,0,0,1-8.026,38.363,26.513,26.513,0,0,1-7.285,1.014Z" transform="translate(-3960.212 2412.574)" fill="none" stroke="rgba(0,0,0,0)" stroke-miterlimit="10" stroke-width="1"/>
    </g>
    <g data-type="innerShadowGroup">
      <g transform="matrix(1, 0, 0, 1, 132.48, 450.84)" filter="url(#Intersection_8)">
        <path id="Intersection_8-3" data-name="Intersection 8" d="M4264.221-1898.652h.24l-.24.24Zm-80.761,0v-84h52.921a22.491,22.491,0,0,1,15.959,6.6l.12.12a22.987,22.987,0,0,1,6.6,16.08,22.747,22.747,0,0,1-13.2,20.64,20.022,20.022,0,0,1-6.479,1.8h-.72v.121h-40.2v38.64Zm15-53.52H4236.5a7.009,7.009,0,0,0,3.12-.72v-.121a7.619,7.619,0,0,0,4.56-6.96,7.91,7.91,0,0,0-2.28-5.519,7.555,7.555,0,0,0-5.4-2.16h-38.041Zm-39.119,53.52-7.681-15-18.36-36-18.359,36-7.681,15h-16.8l7.68-15,35.159-69,35.161,69,7.681,15Zm-122.28,0a26.675,26.675,0,0,1-4.345-.355,130.415,130.415,0,0,1,2.025-14.879,11.57,11.57,0,0,0,2.32.234h26.279a11.626,11.626,0,0,0,11.64-11.521,11.626,11.626,0,0,0-11.64-11.521h-21.916a130.469,130.469,0,0,1,7.078-15h14.838a26.346,26.346,0,0,1,19.56,8.64c.361.359.6.72.961,1.079a26.58,26.58,0,0,1,6,16.8,26.528,26.528,0,0,1-26.52,26.52Zm261.839-.12v-20.723a137.351,137.351,0,0,1,3.107,20.723Zm-34.561-84h.636a134.845,134.845,0,0,1,19.141,25.615Zm-189.479,22.92a7.733,7.733,0,0,0-7.681-7.68h-8.394a135.8,135.8,0,0,1,12.845-14.68,22.76,22.76,0,0,1,18.229,22.239v.48l-15,.12Z" transform="translate(-4001.04 1989.75)" stroke="rgba(0,0,0,0)" stroke-miterlimit="10" stroke-width="1" fill="url(#linear-gradient-3)"/>
      </g>
      <path id="Intersection_8-4" data-name="Intersection 8" d="M4264.221-1898.652h.24l-.24.24Zm-80.761,0v-84h52.921a22.491,22.491,0,0,1,15.959,6.6l.12.12a22.987,22.987,0,0,1,6.6,16.08,22.747,22.747,0,0,1-13.2,20.64,20.022,20.022,0,0,1-6.479,1.8h-.72v.121h-40.2v38.64Zm15-53.52H4236.5a7.009,7.009,0,0,0,3.12-.72v-.121a7.619,7.619,0,0,0,4.56-6.96,7.91,7.91,0,0,0-2.28-5.519,7.555,7.555,0,0,0-5.4-2.16h-38.041Zm-39.119,53.52-7.681-15-18.36-36-18.359,36-7.681,15h-16.8l7.68-15,35.159-69,35.161,69,7.681,15Zm-122.28,0a26.675,26.675,0,0,1-4.345-.355,130.415,130.415,0,0,1,2.025-14.879,11.57,11.57,0,0,0,2.32.234h26.279a11.626,11.626,0,0,0,11.64-11.521,11.626,11.626,0,0,0-11.64-11.521h-21.916a130.469,130.469,0,0,1,7.078-15h14.838a26.346,26.346,0,0,1,19.56,8.64c.361.359.6.72.961,1.079a26.58,26.58,0,0,1,6,16.8,26.528,26.528,0,0,1-26.52,26.52Zm261.839-.12v-20.723a137.351,137.351,0,0,1,3.107,20.723Zm-34.561-84h.636a134.845,134.845,0,0,1,19.141,25.615Zm-189.479,22.92a7.733,7.733,0,0,0-7.681-7.68h-8.394a135.8,135.8,0,0,1,12.845-14.68,22.76,22.76,0,0,1,18.229,22.239v.48l-15,.12Z" transform="translate(-3868.561 2440.592)" fill="url(#linear-gradient-3)"/>
      <g transform="matrix(1, 0, 0, 1, 132.48, 450.84)" filter="url(#Intersection_8-2)">
        <path id="Intersection_8-5" data-name="Intersection 8" d="M4264.221-1898.652h.24l-.24.24Zm-80.761,0v-84h52.921a22.491,22.491,0,0,1,15.959,6.6l.12.12a22.987,22.987,0,0,1,6.6,16.08,22.747,22.747,0,0,1-13.2,20.64,20.022,20.022,0,0,1-6.479,1.8h-.72v.121h-40.2v38.64Zm15-53.52H4236.5a7.009,7.009,0,0,0,3.12-.72v-.121a7.619,7.619,0,0,0,4.56-6.96,7.91,7.91,0,0,0-2.28-5.519,7.555,7.555,0,0,0-5.4-2.16h-38.041Zm-39.119,53.52-7.681-15-18.36-36-18.359,36-7.681,15h-16.8l7.68-15,35.159-69,35.161,69,7.681,15Zm-122.28,0a26.675,26.675,0,0,1-4.345-.355,130.415,130.415,0,0,1,2.025-14.879,11.57,11.57,0,0,0,2.32.234h26.279a11.626,11.626,0,0,0,11.64-11.521,11.626,11.626,0,0,0-11.64-11.521h-21.916a130.469,130.469,0,0,1,7.078-15h14.838a26.346,26.346,0,0,1,19.56,8.64c.361.359.6.72.961,1.079a26.58,26.58,0,0,1,6,16.8,26.528,26.528,0,0,1-26.52,26.52Zm261.839-.12v-20.723a137.351,137.351,0,0,1,3.107,20.723Zm-34.561-84h.636a134.845,134.845,0,0,1,19.141,25.615Zm-189.479,22.92a7.733,7.733,0,0,0-7.681-7.68h-8.394a135.8,135.8,0,0,1,12.845-14.68,22.76,22.76,0,0,1,18.229,22.239v.48l-15,.12Z" transform="translate(-4001.04 1989.75)" fill="#fff"/>
      </g>
      <path id="Intersection_8-6" data-name="Intersection 8" d="M4264.221-1898.652h.24l-.24.24Zm-80.761,0v-84h52.921a22.491,22.491,0,0,1,15.959,6.6l.12.12a22.987,22.987,0,0,1,6.6,16.08,22.747,22.747,0,0,1-13.2,20.64,20.022,20.022,0,0,1-6.479,1.8h-.72v.121h-40.2v38.64Zm15-53.52H4236.5a7.009,7.009,0,0,0,3.12-.72v-.121a7.619,7.619,0,0,0,4.56-6.96,7.91,7.91,0,0,0-2.28-5.519,7.555,7.555,0,0,0-5.4-2.16h-38.041Zm-39.119,53.52-7.681-15-18.36-36-18.359,36-7.681,15h-16.8l7.68-15,35.159-69,35.161,69,7.681,15Zm-122.28,0a26.675,26.675,0,0,1-4.345-.355,130.415,130.415,0,0,1,2.025-14.879,11.57,11.57,0,0,0,2.32.234h26.279a11.626,11.626,0,0,0,11.64-11.521,11.626,11.626,0,0,0-11.64-11.521h-21.916a130.469,130.469,0,0,1,7.078-15h14.838a26.346,26.346,0,0,1,19.56,8.64c.361.359.6.72.961,1.079a26.58,26.58,0,0,1,6,16.8,26.528,26.528,0,0,1-26.52,26.52Zm261.839-.12v-20.723a137.351,137.351,0,0,1,3.107,20.723Zm-34.561-84h.636a134.845,134.845,0,0,1,19.141,25.615Zm-189.479,22.92a7.733,7.733,0,0,0-7.681-7.68h-8.394a135.8,135.8,0,0,1,12.845-14.68,22.76,22.76,0,0,1,18.229,22.239v.48l-15,.12Z" transform="translate(-3868.561 2440.592)" fill="none" stroke="rgba(0,0,0,0)" stroke-miterlimit="10" stroke-width="1"/>
    </g>
    <g data-type="innerShadowGroup">
      <path id="Intersection_9-2" data-name="Intersection 9" d="M4264.221-1904.7h.24l-.24.24Zm-65.9,0c-8.429-17.283-9.707-36.058,1.749-53.043.108-.159.217-.32.325-.478H4236.5a6.993,6.993,0,0,0,3.12-.72v-.12a7.619,7.619,0,0,0,4.56-6.96,7.914,7.914,0,0,0-2.28-5.521,7.56,7.56,0,0,0-5.4-2.16h-21.969a75.735,75.735,0,0,1,27.382-14.319,22.5,22.5,0,0,1,10.427,5.919l.12.12a22.987,22.987,0,0,1,6.6,16.08,22.749,22.749,0,0,1-13.2,20.64,20.022,20.022,0,0,1-6.479,1.8h-.72v.12h-40.2v38.641Zm100.58-.121v-39.36l-2.041-2.52-32.52-42.12h18.96l23.04,29.88,11.1-14.4a64.416,64.416,0,0,1,10.708,10.514L4315.7-1946.7l-1.8,2.28v39.6Z" transform="translate(-3868.561 2446.639)" fill="url(#linear-gradient-5)"/>
      <g transform="matrix(1, 0, 0, 1, 132.48, 450.84)" filter="url(#Intersection_9)">
        <path id="Intersection_9-3" data-name="Intersection 9" d="M4264.221-1904.7h.24l-.24.24Zm-65.9,0c-8.429-17.283-9.707-36.058,1.749-53.043.108-.159.217-.32.325-.478H4236.5a6.993,6.993,0,0,0,3.12-.72v-.12a7.619,7.619,0,0,0,4.56-6.96,7.914,7.914,0,0,0-2.28-5.521,7.56,7.56,0,0,0-5.4-2.16h-21.969a75.735,75.735,0,0,1,27.382-14.319,22.5,22.5,0,0,1,10.427,5.919l.12.12a22.987,22.987,0,0,1,6.6,16.08,22.749,22.749,0,0,1-13.2,20.64,20.022,20.022,0,0,1-6.479,1.8h-.72v.12h-40.2v38.641Zm100.58-.121v-39.36l-2.041-2.52-32.52-42.12h18.96l23.04,29.88,11.1-14.4a64.416,64.416,0,0,1,10.708,10.514L4315.7-1946.7l-1.8,2.28v39.6Z" transform="translate(-4001.04 1995.8)" fill="#fff"/>
      </g>
      <path id="Intersection_9-4" data-name="Intersection 9" d="M4264.221-1904.7h.24l-.24.24Zm-65.9,0c-8.429-17.283-9.707-36.058,1.749-53.043.108-.159.217-.32.325-.478H4236.5a6.993,6.993,0,0,0,3.12-.72v-.12a7.619,7.619,0,0,0,4.56-6.96,7.914,7.914,0,0,0-2.28-5.521,7.56,7.56,0,0,0-5.4-2.16h-21.969a75.735,75.735,0,0,1,27.382-14.319,22.5,22.5,0,0,1,10.427,5.919l.12.12a22.987,22.987,0,0,1,6.6,16.08,22.749,22.749,0,0,1-13.2,20.64,20.022,20.022,0,0,1-6.479,1.8h-.72v.12h-40.2v38.641Zm100.58-.121v-39.36l-2.041-2.52-32.52-42.12h18.96l23.04,29.88,11.1-14.4a64.416,64.416,0,0,1,10.708,10.514L4315.7-1946.7l-1.8,2.28v39.6Z" transform="translate(-3868.561 2446.639)" fill="none" stroke="rgba(0,0,0,0)" stroke-miterlimit="10" stroke-width="1"/>
    </g>
    <g data-type="innerShadowGroup">
      <path id="Intersection_10-2" data-name="Intersection 10" d="M4348.1-1881.428h.12v.241Zm-83.88,0h.24l-.24.241Zm130.559.12v-69H4360.34v-15h65.942a58.752,58.752,0,0,1,4.2,15h-20.7v69Zm-95.879-.24v-39.36l-2.041-2.52-32.52-42.12h18.96l23.04,29.88,23.04-29.88h18.841l-32.52,42.12-1.8,2.28v39.6Zm-58.251-54.786a7.63,7.63,0,0,0,3.531-6.413,7.914,7.914,0,0,0-2.28-5.521,7.126,7.126,0,0,0-.929-.779,56.106,56.106,0,0,1,3.869-14.747,22.538,22.538,0,0,1,7.5,4.966l.12.12a22.985,22.985,0,0,1,6.6,16.08,22.746,22.746,0,0,1-13.2,20.639,19.845,19.845,0,0,1-3.121,1.163A95.833,95.833,0,0,1,4240.649-1936.334Z" transform="translate(-3868.561 2423.368)" fill="url(#linear-gradient-6)"/>
      <g transform="matrix(1, 0, 0, 1, 132.48, 450.84)" filter="url(#Intersection_10)">
        <path id="Intersection_10-3" data-name="Intersection 10" d="M4348.1-1881.428h.12v.241Zm-83.88,0h.24l-.24.241Zm130.559.12v-69H4360.34v-15h65.942a58.752,58.752,0,0,1,4.2,15h-20.7v69Zm-95.879-.24v-39.36l-2.041-2.52-32.52-42.12h18.96l23.04,29.88,23.04-29.88h18.841l-32.52,42.12-1.8,2.28v39.6Zm-58.251-54.786a7.63,7.63,0,0,0,3.531-6.413,7.914,7.914,0,0,0-2.28-5.521,7.126,7.126,0,0,0-.929-.779,56.106,56.106,0,0,1,3.869-14.747,22.538,22.538,0,0,1,7.5,4.966l.12.12a22.985,22.985,0,0,1,6.6,16.08,22.746,22.746,0,0,1-13.2,20.639,19.845,19.845,0,0,1-3.121,1.163A95.833,95.833,0,0,1,4240.649-1936.334Z" transform="translate(-4001.04 1972.53)" fill="#fff"/>
      </g>
      <path id="Intersection_10-4" data-name="Intersection 10" d="M4348.1-1881.428h.12v.241Zm-83.88,0h.24l-.24.241Zm130.559.12v-69H4360.34v-15h65.942a58.752,58.752,0,0,1,4.2,15h-20.7v69Zm-95.879-.24v-39.36l-2.041-2.52-32.52-42.12h18.96l23.04,29.88,23.04-29.88h18.841l-32.52,42.12-1.8,2.28v39.6Zm-58.251-54.786a7.63,7.63,0,0,0,3.531-6.413,7.914,7.914,0,0,0-2.28-5.521,7.126,7.126,0,0,0-.929-.779,56.106,56.106,0,0,1,3.869-14.747,22.538,22.538,0,0,1,7.5,4.966l.12.12a22.985,22.985,0,0,1,6.6,16.08,22.746,22.746,0,0,1-13.2,20.639,19.845,19.845,0,0,1-3.121,1.163A95.833,95.833,0,0,1,4240.649-1936.334Z" transform="translate(-3868.561 2423.368)" fill="none" stroke="rgba(0,0,0,0)" stroke-miterlimit="10" stroke-width="1"/>
    </g>
    <g data-type="innerShadowGroup">
      <g transform="matrix(1, 0, 0, 1, 132.48, 450.84)" filter="url(#Intersection_11)">
        <path id="Intersection_11-3" data-name="Intersection 11" d="M4642.58-1897.977v-74.846a102.933,102.933,0,0,1,19.871,25.443l-4.87-3.755v53.159Zm-93.12-42.119a42.046,42.046,0,0,1,42-42,42.046,42.046,0,0,1,42,42,42.045,42.045,0,0,1-42,42A42.046,42.046,0,0,1,4549.459-1940.1Zm15,0a27.04,27.04,0,0,0,27,27,27.041,27.041,0,0,0,27-27,27.041,27.041,0,0,0-27-27A27.04,27.04,0,0,0,4564.46-1940.1Zm-39.121,42v-38.52h-54v38.52h-2.39a84.973,84.973,0,0,1,.221-31.54,98.028,98.028,0,0,1,7.029-21.979h49.139v-30.48h15v84Z" transform="translate(-4001.04 1989.2)" stroke="rgba(0,0,0,0)" stroke-miterlimit="10" stroke-width="1" fill="url(#linear-gradient)"/>
      </g>
      <path id="Intersection_11-4" data-name="Intersection 11" d="M4642.58-1897.977v-74.846a102.933,102.933,0,0,1,19.871,25.443l-4.87-3.755v53.159Zm-93.12-42.119a42.046,42.046,0,0,1,42-42,42.046,42.046,0,0,1,42,42,42.045,42.045,0,0,1-42,42A42.046,42.046,0,0,1,4549.459-1940.1Zm15,0a27.04,27.04,0,0,0,27,27,27.041,27.041,0,0,0,27-27,27.041,27.041,0,0,0-27-27A27.04,27.04,0,0,0,4564.46-1940.1Zm-39.121,42v-38.52h-54v38.52h-2.39a84.973,84.973,0,0,1,.221-31.54,98.028,98.028,0,0,1,7.029-21.979h49.139v-30.48h15v84Z" transform="translate(-3868.561 2440.037)" fill="url(#linear-gradient)"/>
      <g transform="matrix(1, 0, 0, 1, 132.48, 450.84)" filter="url(#Intersection_11-2)">
        <path id="Intersection_11-5" data-name="Intersection 11" d="M4642.58-1897.977v-74.846a102.933,102.933,0,0,1,19.871,25.443l-4.87-3.755v53.159Zm-93.12-42.119a42.046,42.046,0,0,1,42-42,42.046,42.046,0,0,1,42,42,42.045,42.045,0,0,1-42,42A42.046,42.046,0,0,1,4549.459-1940.1Zm15,0a27.04,27.04,0,0,0,27,27,27.041,27.041,0,0,0,27-27,27.041,27.041,0,0,0-27-27A27.04,27.04,0,0,0,4564.46-1940.1Zm-39.121,42v-38.52h-54v38.52h-2.39a84.973,84.973,0,0,1,.221-31.54,98.028,98.028,0,0,1,7.029-21.979h49.139v-30.48h15v84Z" transform="translate(-4001.04 1989.2)" fill="#fff"/>
      </g>
      <path id="Intersection_11-6" data-name="Intersection 11" d="M4642.58-1897.977v-74.846a102.933,102.933,0,0,1,19.871,25.443l-4.87-3.755v53.159Zm-93.12-42.119a42.046,42.046,0,0,1,42-42,42.046,42.046,0,0,1,42,42,42.045,42.045,0,0,1-42,42A42.046,42.046,0,0,1,4549.459-1940.1Zm15,0a27.04,27.04,0,0,0,27,27,27.041,27.041,0,0,0,27-27,27.041,27.041,0,0,0-27-27A27.04,27.04,0,0,0,4564.46-1940.1Zm-39.121,42v-38.52h-54v38.52h-2.39a84.973,84.973,0,0,1,.221-31.54,98.028,98.028,0,0,1,7.029-21.979h49.139v-30.48h15v84Z" transform="translate(-3868.561 2440.037)" fill="none" stroke="rgba(0,0,0,0)" stroke-miterlimit="10" stroke-width="1"/>
    </g>
    <g data-type="innerShadowGroup">
      <g transform="matrix(1, 0, 0, 1, 132.48, 450.84)" filter="url(#Intersection_12)">
        <path id="Intersection_12-3" data-name="Intersection 12" d="M4264.221-1904.7h.24l-.24.24Zm-65.9,0c-8.429-17.283-9.707-36.058,1.749-53.043.108-.159.217-.32.325-.478H4236.5a6.993,6.993,0,0,0,3.12-.72v-.12a7.619,7.619,0,0,0,4.56-6.96,7.914,7.914,0,0,0-2.28-5.521,7.56,7.56,0,0,0-5.4-2.16h-21.969a75.735,75.735,0,0,1,27.382-14.319,22.5,22.5,0,0,1,10.427,5.919l.12.12a22.987,22.987,0,0,1,6.6,16.08,22.749,22.749,0,0,1-13.2,20.64,20.022,20.022,0,0,1-6.479,1.8h-.72v.12h-40.2v38.641Zm100.58-.121v-39.36l-2.041-2.52-32.52-42.12h18.96l23.04,29.88,11.1-14.4a64.416,64.416,0,0,1,10.708,10.514L4315.7-1946.7l-1.8,2.28v39.6Z" transform="translate(-4001.04 1995.8)" stroke="rgba(0,0,0,0)" stroke-miterlimit="10" stroke-width="1" fill="url(#linear-gradient-5)"/>
      </g>
      <path id="Intersection_12-4" data-name="Intersection 12" d="M4264.221-1904.7h.24l-.24.24Zm-65.9,0c-8.429-17.283-9.707-36.058,1.749-53.043.108-.159.217-.32.325-.478H4236.5a6.993,6.993,0,0,0,3.12-.72v-.12a7.619,7.619,0,0,0,4.56-6.96,7.914,7.914,0,0,0-2.28-5.521,7.56,7.56,0,0,0-5.4-2.16h-21.969a75.735,75.735,0,0,1,27.382-14.319,22.5,22.5,0,0,1,10.427,5.919l.12.12a22.987,22.987,0,0,1,6.6,16.08,22.749,22.749,0,0,1-13.2,20.64,20.022,20.022,0,0,1-6.479,1.8h-.72v.12h-40.2v38.641Zm100.58-.121v-39.36l-2.041-2.52-32.52-42.12h18.96l23.04,29.88,11.1-14.4a64.416,64.416,0,0,1,10.708,10.514L4315.7-1946.7l-1.8,2.28v39.6Z" transform="translate(-3868.561 2446.639)" fill="url(#linear-gradient-5)"/>
      <g transform="matrix(1, 0, 0, 1, 132.48, 450.84)" filter="url(#Intersection_12-2)">
        <path id="Intersection_12-5" data-name="Intersection 12" d="M4264.221-1904.7h.24l-.24.24Zm-65.9,0c-8.429-17.283-9.707-36.058,1.749-53.043.108-.159.217-.32.325-.478H4236.5a6.993,6.993,0,0,0,3.12-.72v-.12a7.619,7.619,0,0,0,4.56-6.96,7.914,7.914,0,0,0-2.28-5.521,7.56,7.56,0,0,0-5.4-2.16h-21.969a75.735,75.735,0,0,1,27.382-14.319,22.5,22.5,0,0,1,10.427,5.919l.12.12a22.987,22.987,0,0,1,6.6,16.08,22.749,22.749,0,0,1-13.2,20.64,20.022,20.022,0,0,1-6.479,1.8h-.72v.12h-40.2v38.641Zm100.58-.121v-39.36l-2.041-2.52-32.52-42.12h18.96l23.04,29.88,11.1-14.4a64.416,64.416,0,0,1,10.708,10.514L4315.7-1946.7l-1.8,2.28v39.6Z" transform="translate(-4001.04 1995.8)" fill="#fff"/>
      </g>
      <path id="Intersection_12-6" data-name="Intersection 12" d="M4264.221-1904.7h.24l-.24.24Zm-65.9,0c-8.429-17.283-9.707-36.058,1.749-53.043.108-.159.217-.32.325-.478H4236.5a6.993,6.993,0,0,0,3.12-.72v-.12a7.619,7.619,0,0,0,4.56-6.96,7.914,7.914,0,0,0-2.28-5.521,7.56,7.56,0,0,0-5.4-2.16h-21.969a75.735,75.735,0,0,1,27.382-14.319,22.5,22.5,0,0,1,10.427,5.919l.12.12a22.987,22.987,0,0,1,6.6,16.08,22.749,22.749,0,0,1-13.2,20.64,20.022,20.022,0,0,1-6.479,1.8h-.72v.12h-40.2v38.641Zm100.58-.121v-39.36l-2.041-2.52-32.52-42.12h18.96l23.04,29.88,11.1-14.4a64.416,64.416,0,0,1,10.708,10.514L4315.7-1946.7l-1.8,2.28v39.6Z" transform="translate(-3868.561 2446.639)" fill="none" stroke="rgba(0,0,0,0)" stroke-miterlimit="10" stroke-width="1"/>
    </g>
    <g data-type="innerShadowGroup">
      <path id="Intersection_13-2" data-name="Intersection 13" d="M4525.34-1886.379v-38.52h-54v38.52h-15v-84h15v30.481h54v-30.481h12.868q1.136,2.313,2.132,4.7v66.132a64.452,64.452,0,0,1-8.4,13.169Zm-115.56-48.474v18.773A84.62,84.62,0,0,1,4409.78-1934.854Zm4.354-20.406a123.9,123.9,0,0,1,5.585-15h24.5v15Z" transform="translate(-3868.561 2428.319)" fill="url(#linear-gradient-5)"/>
      <g transform="matrix(1, 0, 0, 1, 132.48, 450.84)" filter="url(#Intersection_13)">
        <path id="Intersection_13-3" data-name="Intersection 13" d="M4525.34-1886.379v-38.52h-54v38.52h-15v-84h15v30.481h54v-30.481h12.868q1.136,2.313,2.132,4.7v66.132a64.452,64.452,0,0,1-8.4,13.169Zm-115.56-48.474v18.773A84.62,84.62,0,0,1,4409.78-1934.854Zm4.354-20.406a123.9,123.9,0,0,1,5.585-15h24.5v15Z" transform="translate(-4001.04 1977.48)" fill="#fff"/>
      </g>
      <path id="Intersection_13-4" data-name="Intersection 13" d="M4525.34-1886.379v-38.52h-54v38.52h-15v-84h15v30.481h54v-30.481h12.868q1.136,2.313,2.132,4.7v66.132a64.452,64.452,0,0,1-8.4,13.169Zm-115.56-48.474v18.773A84.62,84.62,0,0,1,4409.78-1934.854Zm4.354-20.406a123.9,123.9,0,0,1,5.585-15h24.5v15Z" transform="translate(-3868.561 2428.319)" fill="none" stroke="rgba(0,0,0,0)" stroke-miterlimit="10" stroke-width="1"/>
    </g>
    <g data-type="innerShadowGroup">
      <g transform="matrix(1, 0, 0, 1, 132.48, 450.84)" filter="url(#Intersection_14)">
        <path id="Intersection_14-3" data-name="Intersection 14" d="M4711.58-1910.425l-54-41.64v53.16h-15v-83.76l15,11.521,54,41.64v-53.52l15,.119v84Zm-102.935-9.8a26.959,26.959,0,0,0,9.814-20.8,27.034,27.034,0,0,0-14.458-23.9,70.857,70.857,0,0,1,4.349-14.55,42.059,42.059,0,0,1,25.11,38.453,41.984,41.984,0,0,1-18.081,34.508A84.133,84.133,0,0,1,4608.645-1920.221Z" transform="translate(-4001.04 1990.13)" stroke="rgba(0,0,0,0)" stroke-miterlimit="10" stroke-width="1" fill="url(#linear-gradient-12)"/>
      </g>
      <path id="Intersection_14-4" data-name="Intersection 14" d="M4711.58-1910.425l-54-41.64v53.16h-15v-83.76l15,11.521,54,41.64v-53.52l15,.119v84Zm-102.935-9.8a26.959,26.959,0,0,0,9.814-20.8,27.034,27.034,0,0,0-14.458-23.9,70.857,70.857,0,0,1,4.349-14.55,42.059,42.059,0,0,1,25.11,38.453,41.984,41.984,0,0,1-18.081,34.508A84.133,84.133,0,0,1,4608.645-1920.221Z" transform="translate(-3868.561 2440.966)" fill="url(#linear-gradient-12)"/>
      <g transform="matrix(1, 0, 0, 1, 132.48, 450.84)" filter="url(#Intersection_14-2)">
        <path id="Intersection_14-5" data-name="Intersection 14" d="M4711.58-1910.425l-54-41.64v53.16h-15v-83.76l15,11.521,54,41.64v-53.52l15,.119v84Zm-102.935-9.8a26.959,26.959,0,0,0,9.814-20.8,27.034,27.034,0,0,0-14.458-23.9,70.857,70.857,0,0,1,4.349-14.55,42.059,42.059,0,0,1,25.11,38.453,41.984,41.984,0,0,1-18.081,34.508A84.133,84.133,0,0,1,4608.645-1920.221Z" transform="translate(-4001.04 1990.13)" fill="#fff"/>
      </g>
      <path id="Intersection_14-6" data-name="Intersection 14" d="M4711.58-1910.425l-54-41.64v53.16h-15v-83.76l15,11.521,54,41.64v-53.52l15,.119v84Zm-102.935-9.8a26.959,26.959,0,0,0,9.814-20.8,27.034,27.034,0,0,0-14.458-23.9,70.857,70.857,0,0,1,4.349-14.55,42.059,42.059,0,0,1,25.11,38.453,41.984,41.984,0,0,1-18.081,34.508A84.133,84.133,0,0,1,4608.645-1920.221Z" transform="translate(-3868.561 2440.966)" fill="none" stroke="rgba(0,0,0,0)" stroke-miterlimit="10" stroke-width="1"/>
    </g>
  </g>
</svg>
