<svg xmlns="http://www.w3.org/2000/svg" width="91" height="62" viewBox="0 0 91 62">
  <g id="Group_1" data-name="Group 1" transform="translate(-320 -834)">
    <g id="Path_5" data-name="Path 5" transform="translate(320 834)" fill="none">
      <path d="M7,0H84a7,7,0,0,1,7,7V55a7,7,0,0,1-7,7H7a7,7,0,0,1-7-7V7A7,7,0,0,1,7,0Z" stroke="none"/>
      <path d="M 7 3 C 4.794387817382812 3 3 4.794384002685547 3 7 L 3 55 C 3 57.20561218261719 4.794387817382812 59 7 59 L 84 59 C 86.20561218261719 59 88 57.20561218261719 88 55 L 88 7 C 88 4.794384002685547 86.20561218261719 3 84 3 L 7 3 M 7 0 L 84 0 C 87.86599731445312 0 91 3.133998870849609 91 7 L 91 55 C 91 58.86598587036133 87.86599731445312 62 84 62 L 7 62 C 3.134002685546875 62 0 58.86598587036133 0 55 L 0 7 C 0 3.133998870849609 3.134002685546875 0 7 0 Z" stroke="none" fill="#5e6eff"/>
    </g>
    <path id="Subtraction_3" data-name="Subtraction 3" d="M13.777,41.7h0l-2.28,0a6.477,6.477,0,0,0-8.383-2.954A25.714,25.714,0,0,1,0,31.244,6.511,6.511,0,0,0,4.154,25.2,6.515,6.515,0,0,0,0,19.156a25.707,25.707,0,0,1,3.1-7.5,6.433,6.433,0,0,0,2.629.558h.006a6.432,6.432,0,0,0,4.576-1.9A6.515,6.515,0,0,0,11.651,3.11,25.708,25.708,0,0,1,19.148,0,6.516,6.516,0,0,0,25.2,4.158,6.517,6.517,0,0,0,31.243,0a25.718,25.718,0,0,1,7.5,3.108,6.516,6.516,0,0,0,1.336,7.213,6.568,6.568,0,0,0,.927.77v2.417A8.588,8.588,0,0,1,36.233,4.1a23.69,23.69,0,0,0-3.927-1.629,8.55,8.55,0,0,1-2.2,2.239,8.515,8.515,0,0,1-4.912,1.547,8.515,8.515,0,0,1-4.912-1.547,8.565,8.565,0,0,1-2.2-2.239A23.386,23.386,0,0,0,14.153,4.1,8.583,8.583,0,0,1,11.8,11.806a8.514,8.514,0,0,1-6.06,2.51H5.726A8.677,8.677,0,0,1,4.1,14.16a23.718,23.718,0,0,0-1.628,3.93A8.58,8.58,0,0,1,4.7,20.3a8.519,8.519,0,0,1,1.545,4.91A8.528,8.528,0,0,1,4.7,30.115a8.511,8.511,0,0,1-2.236,2.2A23.733,23.733,0,0,0,4.1,36.246a8.777,8.777,0,0,1,1.636-.155,8.574,8.574,0,0,1,8.042,5.6Zm23.592-1.57h0A8.658,8.658,0,0,1,41,36.9v1.3A21.769,21.769,0,0,0,37.37,40.127ZM25.313,37.78a12.592,12.592,0,1,1,8.91-3.688A12.513,12.513,0,0,1,25.313,37.78Zm0-23.1a10.5,10.5,0,1,0,10.5,10.5A10.509,10.509,0,0,0,25.313,14.684Z" transform="translate(368.5 853.805)" fill="#5e6eff"/>
    <line id="Line_2" data-name="Line 2" x2="89" transform="translate(320.5 844.5)" fill="none" stroke="#5e6eff" stroke-width="2"/>
    <circle id="Ellipse_2" data-name="Ellipse 2" cx="1" cy="1" r="1" transform="translate(324 840)" fill="#e6e251"/>
    <circle id="Ellipse_3" data-name="Ellipse 3" cx="1" cy="1" r="1" transform="translate(327 840)" fill="#ff6565"/>
    <circle id="Ellipse_5" data-name="Ellipse 5" cx="1" cy="1" r="1" transform="translate(330 840)" fill="#5ac962"/>
  </g>
</svg>
