<svg xmlns="http://www.w3.org/2000/svg" enable-background="new 0 0 24 24" viewBox="0 0 24 24"><path fill="none" stroke="#303c42" stroke-linecap="round" stroke-linejoin="round" d="M22.2,11.6c-5-2.8-15-8.3-20-11C2.2,0.5,2.1,0.5,2,0.5C1.7,0.5,1.5,0.7,1.5,1v22 c0,0.3,0.2,0.5,0.5,0.5c0.1,0,0.2,0,0.2-0.1c5-2.7,15-8.2,20-11c0.2-0.1,0.3-0.4,0.2-0.6C22.4,11.7,22.3,11.6,22.2,11.6L22.2,11.6 z"/><line x1="2.2" x2="16.9" y1=".6" y2="15.4" fill="none" stroke="#303c42" stroke-linejoin="round"/><line x1="2.2" x2="16.9" y1="23.4" y2="8.6" fill="none" stroke="#303c42" stroke-linejoin="round"/></svg>