<svg xmlns="http://www.w3.org/2000/svg" viewBox="0 0 24 24"><g data-name="Server 3"><rect width="21" height="7" x="1.5" y="8.5" fill="none" stroke="#303c42" stroke-linecap="round" stroke-linejoin="round" rx="1.5" ry="1.5"/><line x1="4.5" x2="4.5" y1="10.5" y2="13.5" fill="none" stroke="#303c42" stroke-linecap="round" stroke-linejoin="round"/><line x1="6.5" x2="6.5" y1="10.5" y2="13.5" fill="none" stroke="#303c42" stroke-linecap="round" stroke-linejoin="round"/><line x1="8.5" x2="8.5" y1="10.5" y2="13.5" fill="none" stroke="#303c42" stroke-linecap="round" stroke-linejoin="round"/><circle cx="19" cy="12" r=".5" fill="none" stroke="#303c42" stroke-linecap="round" stroke-linejoin="round"/><circle cx="16" cy="12" r=".5" fill="none" stroke="#303c42" stroke-linecap="round" stroke-linejoin="round"/><rect width="21" height="7" x="1.5" y="15.5" fill="none" stroke="#303c42" stroke-linecap="round" stroke-linejoin="round" rx="1.5" ry="1.5"/><line x1="4.5" x2="4.5" y1="17.5" y2="20.5" fill="none" stroke="#303c42" stroke-linecap="round" stroke-linejoin="round"/><line x1="6.5" x2="6.5" y1="17.5" y2="20.5" fill="none" stroke="#303c42" stroke-linecap="round" stroke-linejoin="round"/><line x1="8.5" x2="8.5" y1="17.5" y2="20.5" fill="none" stroke="#303c42" stroke-linecap="round" stroke-linejoin="round"/><circle cx="19" cy="19" r=".5" fill="none" stroke="#303c42" stroke-linecap="round" stroke-linejoin="round"/><circle cx="16" cy="19" r=".5" fill="none" stroke="#303c42" stroke-linecap="round" stroke-linejoin="round"/><path fill="none" stroke="#303c42" stroke-linecap="round" stroke-linejoin="round" d="M22.34,9.32,18.09,2.45a2,2,0,0,0-1.7-.95H7.61a2,2,0,0,0-1.7.95L1.66,9.32" data-name="&lt;Path&gt;"/></g></svg>