<svg xmlns="http://www.w3.org/2000/svg" viewBox="0 0 30 30"><g fill="#303C42"><path d="M29.965 24.816c-.772-1.953-2.197-3.405-3.965-4.18V2c0-1.103-.897-2-2-2H2C.897 0 0 .897 0 2v22c0 1.103.897 2 2 2h14.427c1.312 2.483 3.752 4 6.573 4 3.122 0 5.79-1.846 6.965-4.816a.497.497 0 0 0 0-.368zM2 1h22c.551 0 1 .448 1 1v2H1V2c0-.552.449-1 1-1zm0 24c-.551 0-1-.448-1-1V5h24v15.28a7.544 7.544 0 0 0-2-.28c-3.122 0-5.79 1.846-6.965 4.816A.498.498 0 0 0 16 25H2zm21 4c-2.637 0-4.903-1.527-5.96-4 1.057-2.473 3.323-4 5.96-4s4.903 1.527 5.96 4c-1.057 2.473-3.323 4-5.96 4z"/><path d="M23 22c-1.654 0-3 1.346-3 3s1.346 3 3 3 3-1.346 3-3-1.346-3-3-3zm0 5c-1.103 0-2-.897-2-2s.897-2 2-2 2 .897 2 2-.897 2-2 2z"/><circle cx="6.5" cy="2.5" r=".5"/><circle cx="4.5" cy="2.5" r=".5"/><circle cx="2.5" cy="2.5" r=".5"/></g></svg>